<?xml version="1.0" standalone="no"?>
<!DOCTYPE svg PUBLIC "-//W3C//DTD SVG 20010904//EN" "http://www.w3.org/TR/2001/REC-SVG-20010904/DTD/svg10.dtd">
<svg xmlns="http://www.w3.org/2000/svg" version="1.0" width="2400.000000pt" height="2700.000000pt" viewBox="0 0 2400.000000 2700.000000" preserveAspectRatio="xMidYMid meet">
<metadata>
Created by potrace 1.16, written by Peter Selinger 2001-2019
<meta name="Producer" content="Online-Convert"/></metadata>
<g transform="translate(0.000000,2700.000000) scale(0.100000,-0.100000)" fill="#000000" stroke="none">
<path d="M21275 18882 c-1314 -758 -2408 -1389 -2430 -1404 -53 -35 -3377 -1948 -3441 -1980 -27 -14 -796 -455 -1709 -980 -913 -526 -2436 -1402 -3385 -1948 -949 -546 -1735 -999 -1748 -1007 l-23 -14 22 -37 c71 -120 242 -366 335 -482 130 -161 338 -377 489 -508 626 -541 1367 -860 2215 -953 172 -19 621 -16 805 5 483 56 923 185 1336 391 403 202 709 424 1035 749 250 251 420 465 590 746 62 101 68 108 88 98 11 -6 559 -322 1216 -703 657 -381 1422 -824 1700 -985 278 -160 509 -295 513 -300 10 -9 -133 -251 -276 -465 -907 -1358 -2207 -2408 -3717 -3002 -1347 -530 -2831 -680 -4270 -432 -2000 344 -3791 1445 -5021 3085 -127 170 -366 527 -460 687 -42 72 -67 106 -76 103 -45 -18 -4783 -2753 -4783 -2762 0 -5 25 -50 56 -100 182 -289 446 -540 780 -741 123 -74 1131 -655 3549 -2045 3614 -2077 5260 -3027 5875 -3388 468 -274 766 -391 1135 -446 143 -21 445 -24 575 -5 290 42 540 120 806 254 71 35 642 360 1269 722 627 362 2805 1616 4840 2788 2035 1171 3741 2157 3790 2190 552 367 877 874 979 1524 38 241 39 324 32 6106 -7 6098 -3 5723 -60 5990 -42 198 -169 537 -227 609 -13 15 -235 -111 -2404 -1360z m-2195 -4447 l0 -455 455 0 455 0 0 -460 0 -460 -455 0 -455 0 0 -455 0 -455 -455 0 -455 0 0 455 0 455 -455 0 -455 0 0 460 0 460 455 0 455 0 0 455 0 455 455 0 455 0 0 -455z m3330 0 l0 -455 455 0 455 0 0 -460 0 -460 -455 0 -455 0 0 -455 0 -455 -460 0 -460 0 0 455 0 455 -455 0 -455 0 0 460 0 460 455 0 455 0 0 455 0 455 460 0 460 0 0 -455z"/>
</g>
</svg>
